<?xml version="1.0" encoding="UTF-8"?>
<svg width="150" height="40" viewBox="0 -5 150 40" version="1.1" xmlns="http://www.w3.org/2000/svg" xmlns:xlink="http://www.w3.org/1999/xlink">
    <title>functions</title>
    <defs>
        <linearGradient x1="50%" y1="0%" x2="50%" y2="100%" id="linearGradient-1">
            <stop stop-color="#47C4BF" offset="0%"></stop>
            <stop stop-color="#43A7BF" offset="100%"></stop>
        </linearGradient>
    </defs>
    <g id="Page-1" stroke="none" stroke-width="1" fill="none" fill-rule="evenodd">
        <g id="Artboard" transform="translate(-128.000000, -113.000000)" fill="url(#linearGradient-1)" fill-rule="nonzero">
            <path d="M135.171875,140.369141 L135.171875,124.513672 L139.039062,124.513672 L139.039062,121.349609 L135.171875,121.349609 L135.171875,119.662109 C135.171875,117.564453 136.191406,116.515625 138.230469,116.515625 C138.851562,116.515625 139.396484,116.5625 139.865234,116.65625 L139.865234,116.65625 L139.970703,113.316406 C139.126953,113.105469 138.330078,113 137.580078,113 C135.470703,113 133.830078,113.574219 132.658203,114.722656 C131.486328,115.871094 130.900391,117.5 130.900391,119.609375 L130.900391,119.609375 L130.900391,121.349609 L128,121.349609 L128,124.513672 L130.900391,124.513672 L130.900391,140.369141 L135.171875,140.369141 Z M148.337891,140.720703 C150.646484,140.720703 152.427734,139.982422 153.681641,138.505859 L153.681641,138.505859 L153.787109,140.369141 L157.8125,140.369141 L157.8125,121.349609 L153.541016,121.349609 L153.541016,135.007812 C152.814453,136.496094 151.414062,137.240234 149.339844,137.240234 C147.335938,137.240234 146.333984,136.033203 146.333984,133.619141 L146.333984,133.619141 L146.333984,121.349609 L142.0625,121.349609 L142.0625,133.671875 C142.0625,135.957031 142.592773,137.703125 143.65332,138.910156 C144.713867,140.117188 146.275391,140.720703 148.337891,140.720703 Z M166.373047,140.369141 L166.373047,126.833984 C167.216797,125.275391 168.5,124.496094 170.222656,124.496094 C171.40625,124.496094 172.258789,124.786133 172.780273,125.366211 C173.301758,125.946289 173.5625,126.839844 173.5625,128.046875 L173.5625,128.046875 L173.5625,140.369141 L177.833984,140.369141 L177.833984,127.800781 C177.763672,123.265625 175.748047,120.998047 171.787109,120.998047 C169.501953,120.998047 167.65625,121.847656 166.25,123.546875 L166.25,123.546875 L166.126953,121.349609 L162.101562,121.349609 L162.101562,140.369141 L166.373047,140.369141 Z M190.050781,140.720703 C191.421875,140.720703 192.699219,140.421875 193.882812,139.824219 C195.066406,139.226562 196.003906,138.415039 196.695312,137.389648 C197.386719,136.364258 197.755859,135.259766 197.802734,134.076172 L197.802734,134.076172 L193.777344,134.076172 C193.730469,134.990234 193.355469,135.757812 192.652344,136.378906 C191.949219,137 191.064453,137.310547 189.998047,137.310547 C188.591797,137.310547 187.516602,136.803711 186.772461,135.790039 C186.02832,134.776367 185.65625,133.238281 185.65625,131.175781 L185.65625,131.175781 L185.65625,130.490234 C185.667969,128.451172 186.048828,126.930664 186.798828,125.928711 C187.548828,124.926758 188.615234,124.425781 189.998047,124.425781 C191.076172,124.425781 191.963867,124.777344 192.661133,125.480469 C193.358398,126.183594 193.730469,127.080078 193.777344,128.169922 L193.777344,128.169922 L197.802734,128.169922 C197.732422,126.025391 196.985352,124.293945 195.561523,122.975586 C194.137695,121.657227 192.294922,120.998047 190.033203,120.998047 C187.361328,120.998047 185.251953,121.868164 183.705078,123.608398 C182.158203,125.348633 181.384766,127.666016 181.384766,130.560547 L181.384766,130.560547 L181.384766,131 C181.384766,134.035156 182.164062,136.414062 183.722656,138.136719 C185.28125,139.859375 187.390625,140.720703 190.050781,140.720703 Z M207.03125,140.720703 C207.933594,140.720703 208.871094,140.585938 209.84375,140.316406 L209.84375,140.316406 L209.84375,137.011719 C209.339844,137.128906 208.841797,137.1875 208.349609,137.1875 C207.611328,137.1875 207.098633,137.026367 206.811523,136.704102 C206.524414,136.381836 206.380859,135.857422 206.380859,135.130859 L206.380859,135.130859 L206.380859,124.513672 L209.738281,124.513672 L209.738281,121.349609 L206.380859,121.349609 L206.380859,116.726562 L202.109375,116.726562 L202.109375,121.349609 L198.980469,121.349609 L198.980469,124.513672 L202.109375,124.513672 L202.109375,135.289062 C202.109375,138.910156 203.75,140.720703 207.03125,140.720703 Z M215.416016,118.660156 C216.189453,118.660156 216.787109,118.446289 217.208984,118.018555 C217.630859,117.59082 217.841797,117.054688 217.841797,116.410156 C217.841797,115.753906 217.630859,115.208984 217.208984,114.775391 C216.787109,114.341797 216.189453,114.125 215.416016,114.125 C214.642578,114.125 214.047852,114.341797 213.631836,114.775391 C213.21582,115.208984 213.007812,115.753906 213.007812,116.410156 C213.007812,117.054688 213.21582,117.59082 213.631836,118.018555 C214.047852,118.446289 214.642578,118.660156 215.416016,118.660156 Z M217.542969,140.369141 L217.542969,121.349609 L213.271484,121.349609 L213.271484,140.369141 L217.542969,140.369141 Z M230.251953,140.720703 C232.009766,140.720703 233.55957,140.316406 234.901367,139.507812 C236.243164,138.699219 237.274414,137.556641 237.995117,136.080078 C238.71582,134.603516 239.076172,132.927734 239.076172,131.052734 L239.076172,131.052734 L239.058594,130.050781 C238.929688,127.320312 238.06543,125.128906 236.46582,123.476562 C234.866211,121.824219 232.783203,120.998047 230.216797,120.998047 C228.482422,120.998047 226.947266,121.399414 225.611328,122.202148 C224.275391,123.004883 223.238281,124.15332 222.5,125.647461 C221.761719,127.141602 221.392578,128.820312 221.392578,130.683594 L221.392578,130.683594 L221.392578,130.894531 C221.392578,133.871094 222.198242,136.25293 223.80957,138.040039 C225.420898,139.827148 227.568359,140.720703 230.251953,140.720703 Z M230.251953,137.310547 C228.810547,137.310547 227.685547,136.756836 226.876953,135.649414 C226.068359,134.541992 225.664062,133.009766 225.664062,131.052734 C225.664062,128.849609 226.074219,127.194336 226.894531,126.086914 C227.714844,124.979492 228.822266,124.425781 230.216797,124.425781 C231.634766,124.425781 232.756836,124.988281 233.583008,126.113281 C234.40918,127.238281 234.822266,128.761719 234.822266,130.683594 C234.822266,132.851562 234.420898,134.498047 233.618164,135.623047 C232.81543,136.748047 231.693359,137.310547 230.251953,137.310547 Z M246.898438,140.369141 L246.898438,126.833984 C247.742188,125.275391 249.025391,124.496094 250.748047,124.496094 C251.931641,124.496094 252.78418,124.786133 253.305664,125.366211 C253.827148,125.946289 254.087891,126.839844 254.087891,128.046875 L254.087891,128.046875 L254.087891,140.369141 L258.359375,140.369141 L258.359375,127.800781 C258.289062,123.265625 256.273438,120.998047 252.3125,120.998047 C250.027344,120.998047 248.181641,121.847656 246.775391,123.546875 L246.775391,123.546875 L246.652344,121.349609 L242.626953,121.349609 L242.626953,140.369141 L246.898438,140.369141 Z M269.873047,140.720703 C272.169922,140.720703 274.027344,140.19043 275.445312,139.129883 C276.863281,138.069336 277.572266,136.683594 277.572266,134.972656 C277.572266,133.953125 277.34082,133.085938 276.87793,132.371094 C276.415039,131.65625 275.706055,131.043945 274.750977,130.53418 C273.795898,130.024414 272.480469,129.584961 270.804688,129.21582 C269.128906,128.84668 268.015625,128.480469 267.464844,128.117188 C266.914062,127.753906 266.638672,127.244141 266.638672,126.587891 C266.638672,125.861328 266.93457,125.28125 267.526367,124.847656 C268.118164,124.414062 268.882812,124.197266 269.820312,124.197266 C270.828125,124.197266 271.636719,124.469727 272.246094,125.014648 C272.855469,125.55957 273.160156,126.242188 273.160156,127.0625 L273.160156,127.0625 L277.431641,127.0625 C277.431641,125.269531 276.731445,123.810547 275.331055,122.685547 C273.930664,121.560547 272.09375,120.998047 269.820312,120.998047 C267.6875,120.998047 265.929688,121.548828 264.546875,122.650391 C263.164062,123.751953 262.472656,125.123047 262.472656,126.763672 C262.472656,128.720703 263.539062,130.214844 265.671875,131.246094 C266.644531,131.714844 267.857422,132.101562 269.310547,132.40625 C270.763672,132.710938 271.803711,133.0625 272.430664,133.460938 C273.057617,133.859375 273.371094,134.439453 273.371094,135.201172 C273.371094,135.892578 273.078125,136.452148 272.492188,136.879883 C271.90625,137.307617 271.050781,137.521484 269.925781,137.521484 C268.765625,137.521484 267.833984,137.249023 267.130859,136.704102 C266.427734,136.15918 266.046875,135.382812 265.988281,134.375 L265.988281,134.375 L261.839844,134.375 C261.839844,135.511719 262.179688,136.572266 262.859375,137.556641 C263.539062,138.541016 264.488281,139.314453 265.707031,139.876953 C266.925781,140.439453 268.314453,140.720703 269.873047,140.720703 Z" id="functions"></path>
        </g>
    </g>
</svg>
