<?xml version="1.0" encoding="UTF-8"?>
<svg width="150px" height="40px" viewBox="0 0 150 40" version="1.1" xmlns="http://www.w3.org/2000/svg" xmlns:xlink="http://www.w3.org/1999/xlink">
    <title>functions</title>
    <defs>
        <linearGradient x1="50%" y1="0%" x2="50%" y2="100%" id="linearGradient-1">
            <stop stop-color="#47C4BF" offset="0%"></stop>
            <stop stop-color="#43A7BF" offset="100%"></stop>
        </linearGradient>
    </defs>
    <g id="Page-1" stroke="none" stroke-width="1" fill="none" fill-rule="evenodd">
        <g id="Group" transform="translate(0.000000, 5.000000)" fill="url(#linearGradient-1)" fill-rule="nonzero">
            <path d="M7.171875,27.369141 L7.171875,11.513672 L11.039062,11.513672 L11.039062,8.349609 L7.171875,8.349609 L7.171875,6.662109 C7.171875,4.564453 8.191406,3.515625 10.230469,3.515625 C10.851562,3.515625 11.396484,3.5625 11.865234,3.65625 L11.865234,3.65625 L11.970703,0.316406 C11.126953,0.105469 10.330078,0 9.580078,0 C7.470703,0 5.830078,0.574219 4.658203,1.722656 C3.486328,2.871094 2.900391,4.5 2.900391,6.609375 L2.900391,6.609375 L2.900391,8.349609 L0,8.349609 L0,11.513672 L2.900391,11.513672 L2.900391,27.369141 L7.171875,27.369141 Z M20.337891,27.720703 C22.646484,27.720703 24.427734,26.982422 25.681641,25.505859 L25.681641,25.505859 L25.787109,27.369141 L29.8125,27.369141 L29.8125,8.349609 L25.541016,8.349609 L25.541016,22.007812 C24.814453,23.496094 23.414062,24.240234 21.339844,24.240234 C19.335938,24.240234 18.333984,23.033203 18.333984,20.619141 L18.333984,20.619141 L18.333984,8.349609 L14.0625,8.349609 L14.0625,20.671875 C14.0625,22.957031 14.592773,24.703125 15.65332,25.910156 C16.713867,27.117188 18.275391,27.720703 20.337891,27.720703 Z M38.373047,27.369141 L38.373047,13.833984 C39.216797,12.275391 40.5,11.496094 42.222656,11.496094 C43.40625,11.496094 44.258789,11.786133 44.780273,12.366211 C45.301758,12.946289 45.5625,13.839844 45.5625,15.046875 L45.5625,15.046875 L45.5625,27.369141 L49.833984,27.369141 L49.833984,14.800781 C49.763672,10.265625 47.748047,7.998047 43.787109,7.998047 C41.501953,7.998047 39.65625,8.847656 38.25,10.546875 L38.25,10.546875 L38.126953,8.349609 L34.101562,8.349609 L34.101562,27.369141 L38.373047,27.369141 Z M62.050781,27.720703 C63.421875,27.720703 64.699219,27.421875 65.882812,26.824219 C67.066406,26.226562 68.003906,25.415039 68.695312,24.389648 C69.386719,23.364258 69.755859,22.259766 69.802734,21.076172 L69.802734,21.076172 L65.777344,21.076172 C65.730469,21.990234 65.355469,22.757812 64.652344,23.378906 C63.949219,24 63.064453,24.310547 61.998047,24.310547 C60.591797,24.310547 59.516602,23.803711 58.772461,22.790039 C58.02832,21.776367 57.65625,20.238281 57.65625,18.175781 L57.65625,18.175781 L57.65625,17.490234 C57.667969,15.451172 58.048828,13.930664 58.798828,12.928711 C59.548828,11.926758 60.615234,11.425781 61.998047,11.425781 C63.076172,11.425781 63.963867,11.777344 64.661133,12.480469 C65.358398,13.183594 65.730469,14.080078 65.777344,15.169922 L65.777344,15.169922 L69.802734,15.169922 C69.732422,13.025391 68.985352,11.293945 67.561523,9.975586 C66.137695,8.657227 64.294922,7.998047 62.033203,7.998047 C59.361328,7.998047 57.251953,8.868164 55.705078,10.608398 C54.158203,12.348633 53.384766,14.666016 53.384766,17.560547 L53.384766,17.560547 L53.384766,18 C53.384766,21.035156 54.164062,23.414062 55.722656,25.136719 C57.28125,26.859375 59.390625,27.720703 62.050781,27.720703 Z M79.03125,27.720703 C79.933594,27.720703 80.871094,27.585938 81.84375,27.316406 L81.84375,27.316406 L81.84375,24.011719 C81.339844,24.128906 80.841797,24.1875 80.349609,24.1875 C79.611328,24.1875 79.098633,24.026367 78.811523,23.704102 C78.524414,23.381836 78.380859,22.857422 78.380859,22.130859 L78.380859,22.130859 L78.380859,11.513672 L81.738281,11.513672 L81.738281,8.349609 L78.380859,8.349609 L78.380859,3.726562 L74.109375,3.726562 L74.109375,8.349609 L70.980469,8.349609 L70.980469,11.513672 L74.109375,11.513672 L74.109375,22.289062 C74.109375,25.910156 75.75,27.720703 79.03125,27.720703 Z M87.416016,5.660156 C88.189453,5.660156 88.787109,5.446289 89.208984,5.018555 C89.630859,4.59082 89.841797,4.054688 89.841797,3.410156 C89.841797,2.753906 89.630859,2.208984 89.208984,1.775391 C88.787109,1.341797 88.189453,1.125 87.416016,1.125 C86.642578,1.125 86.047852,1.341797 85.631836,1.775391 C85.21582,2.208984 85.007812,2.753906 85.007812,3.410156 C85.007812,4.054688 85.21582,4.59082 85.631836,5.018555 C86.047852,5.446289 86.642578,5.660156 87.416016,5.660156 Z M89.542969,27.369141 L89.542969,8.349609 L85.271484,8.349609 L85.271484,27.369141 L89.542969,27.369141 Z M102.251953,27.720703 C104.009766,27.720703 105.55957,27.316406 106.901367,26.507812 C108.243164,25.699219 109.274414,24.556641 109.995117,23.080078 C110.71582,21.603516 111.076172,19.927734 111.076172,18.052734 L111.076172,18.052734 L111.058594,17.050781 C110.929688,14.320312 110.06543,12.128906 108.46582,10.476562 C106.866211,8.824219 104.783203,7.998047 102.216797,7.998047 C100.482422,7.998047 98.947266,8.399414 97.611328,9.202148 C96.275391,10.004883 95.238281,11.15332 94.5,12.647461 C93.761719,14.141602 93.392578,15.820312 93.392578,17.683594 L93.392578,17.683594 L93.392578,17.894531 C93.392578,20.871094 94.198242,23.25293 95.80957,25.040039 C97.420898,26.827148 99.568359,27.720703 102.251953,27.720703 Z M102.251953,24.310547 C100.810547,24.310547 99.685547,23.756836 98.876953,22.649414 C98.068359,21.541992 97.664062,20.009766 97.664062,18.052734 C97.664062,15.849609 98.074219,14.194336 98.894531,13.086914 C99.714844,11.979492 100.822266,11.425781 102.216797,11.425781 C103.634766,11.425781 104.756836,11.988281 105.583008,13.113281 C106.40918,14.238281 106.822266,15.761719 106.822266,17.683594 C106.822266,19.851562 106.420898,21.498047 105.618164,22.623047 C104.81543,23.748047 103.693359,24.310547 102.251953,24.310547 Z M118.898438,27.369141 L118.898438,13.833984 C119.742188,12.275391 121.025391,11.496094 122.748047,11.496094 C123.931641,11.496094 124.78418,11.786133 125.305664,12.366211 C125.827148,12.946289 126.087891,13.839844 126.087891,15.046875 L126.087891,15.046875 L126.087891,27.369141 L130.359375,27.369141 L130.359375,14.800781 C130.289062,10.265625 128.273438,7.998047 124.3125,7.998047 C122.027344,7.998047 120.181641,8.847656 118.775391,10.546875 L118.775391,10.546875 L118.652344,8.349609 L114.626953,8.349609 L114.626953,27.369141 L118.898438,27.369141 Z M141.873047,27.720703 C144.169922,27.720703 146.027344,27.19043 147.445312,26.129883 C148.863281,25.069336 149.572266,23.683594 149.572266,21.972656 C149.572266,20.953125 149.34082,20.085938 148.87793,19.371094 C148.415039,18.65625 147.706055,18.043945 146.750977,17.53418 C145.795898,17.024414 144.480469,16.584961 142.804688,16.21582 C141.128906,15.84668 140.015625,15.480469 139.464844,15.117188 C138.914062,14.753906 138.638672,14.244141 138.638672,13.587891 C138.638672,12.861328 138.93457,12.28125 139.526367,11.847656 C140.118164,11.414062 140.882812,11.197266 141.820312,11.197266 C142.828125,11.197266 143.636719,11.469727 144.246094,12.014648 C144.855469,12.55957 145.160156,13.242188 145.160156,14.0625 L145.160156,14.0625 L149.431641,14.0625 C149.431641,12.269531 148.731445,10.810547 147.331055,9.685547 C145.930664,8.560547 144.09375,7.998047 141.820312,7.998047 C139.6875,7.998047 137.929688,8.548828 136.546875,9.650391 C135.164062,10.751953 134.472656,12.123047 134.472656,13.763672 C134.472656,15.720703 135.539062,17.214844 137.671875,18.246094 C138.644531,18.714844 139.857422,19.101562 141.310547,19.40625 C142.763672,19.710938 143.803711,20.0625 144.430664,20.460938 C145.057617,20.859375 145.371094,21.439453 145.371094,22.201172 C145.371094,22.892578 145.078125,23.452148 144.492188,23.879883 C143.90625,24.307617 143.050781,24.521484 141.925781,24.521484 C140.765625,24.521484 139.833984,24.249023 139.130859,23.704102 C138.427734,23.15918 138.046875,22.382812 137.988281,21.375 L137.988281,21.375 L133.839844,21.375 C133.839844,22.511719 134.179688,23.572266 134.859375,24.556641 C135.539062,25.541016 136.488281,26.314453 137.707031,26.876953 C138.925781,27.439453 140.314453,27.720703 141.873047,27.720703 Z" id="functions"></path>
        </g>
    </g>
</svg>
