<svg width="86" height="40" viewBox="0 0 86 40" fill="none" xmlns="http://www.w3.org/2000/svg">
<path d="M6.60938 16.5434V15.0509L6.39618 14.8377H4.26412L4.05091 14.6245V13.7717C4.05091 13.1321 4.47732 12.9189 4.90374 12.9189H6.60938L6.82259 12.7056V11.2132L6.60938 11H4.90374C3.41129 11 1.91885 11.8528 1.91885 13.7717V14.6245L1.70565 14.8377H0.213206L0 15.0509V16.5434L0.213206 16.7566H1.70565L1.91885 16.9698V25.2848L2.13206 25.498H3.83771L4.05091 25.2848V16.9698L4.26412 16.7566H6.39618L6.60938 16.5434Z" fill="#778089"/>
<path d="M17.2722 25.2848V15.0509L17.059 14.8377H15.3533L15.1401 15.0509V20.1679C15.1401 22.7263 14.0528 23.7924 12.5816 23.7924C10.876 23.7924 10.4496 22.5131 10.4496 21.2339V15.0509L10.2364 14.8377H8.53073L8.31753 15.0509V21.2339C8.31753 23.5578 9.38356 25.7112 12.3684 25.7112C13.3918 25.7112 14.3726 25.1995 14.9269 24.432H15.1401L15.3533 25.2848L15.5665 25.498H17.059L17.2722 25.2848Z" fill="#778089"/>
<path d="M29.0043 25.2848V19.1018C29.0043 16.5434 27.9383 14.6245 24.9534 14.6245C23.8234 14.6245 22.8 15.0936 22.1817 15.9037H21.9685L21.7553 15.0509L21.5421 14.8377H20.0497L19.8365 15.0509V25.2848L20.0497 25.498H21.7553L21.9685 25.2848V20.1679C21.9685 17.5881 22.8 16.5434 24.7402 16.5434C26.6591 16.5434 26.8723 18.0145 26.8723 19.1018V25.2848L27.0855 25.498H28.7911L29.0043 25.2848Z" fill="#778089"/>
<path d="M32.8429 20.1679C32.8429 17.8226 33.9089 16.5434 35.8278 16.5434C37.5334 16.5434 38.173 17.3962 38.3862 18.249L38.5994 18.4622H40.3051L40.5183 18.249C40.3051 16.3301 38.8126 14.6245 35.8278 14.6245C32.6297 14.6245 30.7108 16.7566 30.7108 20.1679C30.7108 23.5791 32.6297 25.7112 35.8278 25.7112C38.8126 25.7112 40.3051 24.0056 40.5183 22.0867L40.3051 21.8735H38.5994L38.3862 22.0867C38.173 22.9395 37.5334 23.7924 35.8278 23.7924C33.9089 23.7924 32.8429 22.5131 32.8429 20.1679Z" fill="#778089"/>
<path d="M48.1887 25.2848V23.7924L47.9755 23.5791H46.2698C45.8434 23.5791 45.417 23.3659 45.417 22.7263V16.9698L45.6302 16.7566H47.9755L48.1887 16.5434V15.0509L47.9755 14.8377H45.6302L45.417 14.6245V12.7056L45.2038 12.4924H43.4982L43.285 12.7056V14.6245L43.0718 14.8377H41.5793L41.3661 15.0509V16.5434L41.5793 16.7566H43.0718L43.285 16.9698V22.7263C43.285 24.6452 44.7774 25.498 46.2698 25.498H47.9755L48.1887 25.2848Z" fill="#778089"/>
<path d="M52.4503 12.9189V11.2132L52.2371 11H50.5315L50.3183 11.2132V12.9189L50.5315 13.1321H52.2371L52.4503 12.9189ZM52.4503 25.2848V15.0509L52.2371 14.8377H50.5315L50.3183 15.0509V25.2848L50.5315 25.498H52.2371L52.4503 25.2848Z" fill="#778089"/>
<path d="M54.3633 20.1679C54.3633 23.5791 56.2822 25.7112 59.4803 25.7112C62.6784 25.7112 64.5972 23.5791 64.5972 20.1679C64.5972 16.7566 62.6784 14.6245 59.4803 14.6245C56.2822 14.6245 54.3633 16.7566 54.3633 20.1679ZM56.4954 20.1679C56.4954 17.8226 57.5614 16.5434 59.4803 16.5434C61.3991 16.5434 62.4652 17.8226 62.4652 20.1679C62.4652 22.5131 61.3991 23.7924 59.4803 23.7924C57.5614 23.7924 56.4954 22.5131 56.4954 20.1679Z" fill="#778089"/>
<path d="M75.6848 25.2848V19.1018C75.6848 16.5434 74.6187 14.6245 71.6339 14.6245C70.5039 14.6245 69.4805 15.0936 68.8622 15.9037H68.649L68.4358 15.0509L68.2226 14.8377H66.7301L66.5169 15.0509V25.2848L66.7301 25.498H68.4358L68.649 25.2848V20.1679C68.649 17.5881 69.4805 16.5434 71.4206 16.5434C73.3395 16.5434 73.5527 18.0145 73.5527 19.1018V25.2848L73.7659 25.498H75.4716L75.6848 25.2848Z" fill="#778089"/>
<path d="M85.9195 22.5131C85.9195 20.5943 84.8534 19.7414 82.7214 19.315C80.5893 18.8886 79.7365 18.6754 79.7365 17.6094C79.7365 16.7566 80.5893 16.5434 81.6554 16.5434C83.1478 16.5434 83.5742 17.183 83.5742 17.8226L83.7874 18.0358H85.4931L85.7063 17.8226C85.7063 15.6905 84.0006 14.6245 81.6554 14.6245C78.6705 14.6245 77.6044 16.1169 77.6044 17.6094C77.6044 19.5282 78.8837 20.3811 81.0157 20.8075C83.1478 21.2339 83.7874 21.4471 83.7874 22.5131C83.7874 23.3659 83.1478 23.7924 81.6554 23.7924C80.1629 23.7924 79.5233 23.1527 79.5233 22.0867L79.3101 21.8735H77.6044L77.3912 22.0867C77.3912 24.432 78.8837 25.7112 81.6554 25.7112C84.6402 25.7112 85.9195 24.2188 85.9195 22.5131Z" fill="#778089"/>
</svg>
