<svg viewBox="0 0 148 49" xmlns="http://www.w3.org/2000/svg" xmlns:xlink="http://www.w3.org/1999/xlink"><radialGradient id="a" cy="-50%" gradientTransform="matrix(0 .9989 -1 0 0 -1)" r="100.11%"><stop offset="0" stop-color="#20c6b7"/><stop offset="1" stop-color="#4d9abf"/></radialGradient><g fill="none" transform="translate(.129 .829)"><path d="m50.71 47.17v-4.47h4.45v-1.4h-4.45v-3.4h4.86v-1.4h-6.47v10.67h1.6zm9.2.13c1.34 0 2.1-.6 2.4-1.25h.05v1.12h1.56v-8.23h-1.58v5.02c0 1.26-.79 1.95-1.88 1.95-1 0-1.85-.44-1.85-1.93v-5.04h-1.57v5.48c0 1.9 1.18 2.88 2.88 2.88zm7.86-.13v-4.95c0-1.1.6-2.03 1.9-2.03 1.1 0 1.88.65 1.88 1.99v5h1.57v-5.3c0-2-1.23-3.08-2.91-3.08-1.35 0-2.11.72-2.4 1.26h-.06v-1.12h-1.55v8.23zm10.68.14c1.9 0 3.04-.98 3.27-2.54h-1.5c-.14.65-.68 1.2-1.67 1.2-1.23 0-2.01-1-2.01-2.56v-.74c0-1.58.74-2.54 2-2.54.85 0 1.46.62 1.62 1.31h1.52c-.07-1.36-1.26-2.64-3.23-2.64-2.2 0-3.5 1.59-3.5 3.83v.77c0 2.26 1.28 3.91 3.5 3.91zm8.26-.08c.33 0 .64-.03.77-.05v-1.23l-.37.02c-.97 0-1.3-.25-1.3-1.19v-4.56h1.62v-1.28h-1.63v-2.04h-1.56v2.03h-1.14v1.28h1.13v4.64c0 1.64.49 2.37 2.47 2.37zm3.55-9.37c.53 0 .96-.4.96-.93a.93.93 0 0 0 -.96-.93c-.53 0-.96.4-.96.93s.43.93.96.93zm.8 9.31v-8.23h-1.59v8.23h1.58zm5.64.14c2.34 0 3.6-1.64 3.6-3.93v-.7c0-2.22-1.26-3.88-3.6-3.88-2.35 0-3.63 1.67-3.63 3.9v.68c0 2.3 1.28 3.93 3.63 3.93zm0-1.31c-1.34 0-2.04-1.09-2.04-2.64v-.63c0-1.57.7-2.64 2.03-2.64 1.34 0 2.02 1.06 2.02 2.64v.63c0 1.56-.67 2.64-2.02 2.64zm7.12 1.17v-4.95c0-1.1.6-2.03 1.9-2.03 1.1 0 1.89.65 1.89 1.99v5h1.57v-5.3c0-2-1.23-3.08-2.92-3.08-1.35 0-2.1.72-2.4 1.26h-.05v-1.12h-1.56v8.23zm10.22.14c2.02 0 3.34-.95 3.34-2.6 0-1.59-1.24-2.04-2.77-2.31-.94-.17-2.07-.35-2.07-1.24 0-.74.65-1.15 1.57-1.15 1.18 0 1.56.68 1.6 1.27h1.44c0-1.42-1.05-2.48-3-2.48-1.63 0-3.13.75-3.13 2.52 0 1.5 1.24 2 2.76 2.31 1.11.22 2.06.38 2.06 1.27 0 .65-.53 1.2-1.7 1.2-1.02 0-1.63-.48-1.73-1.18h-1.54c0 1.48 1.25 2.4 3.17 2.4z" fill="#4d9abf"/><path d="m53.24 12.15.12 2.2a6.82 6.82 0 0 1 5.53-2.55c3.95 0 5.96 2.27 6.03 6.8v12.57h-4.26v-12.32c0-1.21-.26-2.1-.78-2.68s-1.37-.87-2.55-.87c-1.72 0-3 .78-3.84 2.33v13.54h-4.26v-19.02zm24.38 19.37a8.8 8.8 0 0 1 -6.57-2.56c-1.68-1.7-2.52-3.97-2.52-6.8v-.53c0-1.9.37-3.6 1.1-5.1a8.13 8.13 0 0 1 7.5-4.74c2.58 0 4.58.84 5.99 2.49 1.4 1.65 2.11 3.99 2.11 7.01v1.72h-12.4a5.72 5.72 0 0 0 1.57 3.73 4.7 4.7 0 0 0 3.46 1.37c1.96 0 3.55-.79 4.78-2.37l2.3 2.2a7.68 7.68 0 0 1 -3.05 2.64 9.5 9.5 0 0 1 -4.27.94zm-.5-16.3c-1.18 0-2.12.42-2.84 1.24a6.38 6.38 0 0 0 -1.38 3.43h8.12v-.32a5.2 5.2 0 0 0 -1.14-3.24 3.56 3.56 0 0 0 -2.77-1.1zm16.76-7.7v4.63h3.35v3.16h-3.35v10.62c0 .73.14 1.25.43 1.57.28.33.8.49 1.53.49.5 0 1-.06 1.5-.18v3.3c-.98.28-1.91.41-2.81.41-3.28 0-4.92-1.81-4.92-5.43v-10.79h-3.11v-3.16h3.12v-4.61h4.26zm11.12 23.66h-4.26v-27h4.26zm9.17 0h-4.26v-19.03h4.27v19.02zm-4.52-23.96c0-.65.2-1.2.62-1.63.42-.44 1.01-.65 1.78-.65s1.37.21 1.8.65c.41.43.62.98.62 1.63a2.2 2.2 0 0 1 -.63 1.6 2.4 2.4 0 0 1 -1.79.65c-.77 0-1.36-.21-1.78-.64a2.22 2.22 0 0 1 -.62-1.6v-.03zm10.66 23.96v-15.87h-2.9v-3.16h2.9v-1.75c0-2.11.59-3.74 1.76-4.89s2.8-1.72 4.9-1.72c.75 0 1.55.1 2.4.32l-.11 3.34a8.38 8.38 0 0 0 -1.63-.14c-2.04 0-3.06 1.04-3.06 3.14v1.69h3.86v3.16h-3.86v15.86h-4.26zm17.87-6.12 3.86-12.9h4.54l-7.54 21.9c-1.16 3.2-3.12 4.8-5.89 4.8-.62 0-1.3-.1-2.05-.31v-3.31l.8.05c1.08 0 1.89-.2 2.43-.59a3.9 3.9 0 0 0 1.3-1.97l.6-1.64-6.66-18.93h4.6l4.01 12.9z" fill="#0e1e25"/><path d="m27.76 13.3h-.02l-.02-.01a.11.11 0 0 1 -.03-.1l.78-4.72 3.62 3.62-3.77 1.6-.03.01h-.02l-.02-.01c-.14-.16-.3-.29-.5-.38zm5.26-.28 3.87 3.87c.8.81 1.21 1.21 1.36 1.68l.05.2-9.26-3.92h-.02c-.03-.02-.08-.03-.08-.07s.05-.06.08-.07h.02l3.98-1.7zm5.12 7c-.2.38-.59.77-1.25 1.43l-4.37 4.37-5.65-1.18h-.03c-.05-.01-.1-.02-.1-.07a1.7 1.7 0 0 0 -.66-1.2c-.02-.01-.01-.05 0-.08v-.02l1.06-6.52v-.02c0-.05.02-.11.06-.11.46-.06.88-.3 1.16-.67l.03-.02c.03-.02.07 0 .1 0l9.65 4.1zm-6.62 6.8-7.19 7.19 1.23-7.56v-.01l.01-.03c.01-.02.04-.03.06-.04l.01-.01c.27-.11.51-.3.7-.52.02-.02.05-.05.09-.06h.03zm-8.7 8.7-.82.82-8.95-12.94-.01-.02c-.02-.02-.03-.03-.03-.06l.02-.04.01-.01.08-.12.02-.04c.01-.03.03-.05.05-.06s.05 0 .07 0l9.92 2.04c.03 0 .06.02.08.04l.02.04c.14.53.52.96 1.03 1.17.03.02.01.05 0 .08l-.01.05-1.49 9.06zm-1.7 1.7c-.6.6-.95.9-1.35 1.03a2 2 0 0 1 -1.2 0c-.47-.15-.87-.55-1.68-1.36l-9-8.99 2.36-3.64a.15.15 0 0 1 .04-.05c.02-.02.06 0 .09 0 .54.16 1.12.13 1.64-.08.02-.01.05-.02.07 0l.03.03zm-14.09-10.19-2.06-2.06 4.07-1.74h.04c.03 0 .05.03.07.06l.13.19.01.01v.05l-2.26 3.5zm-2.97-2.97-2.61-2.61c-.45-.45-.77-.77-1-1.05l7.94 1.64h.03c.05.01.1.02.1.07s-.05.07-.1.1h-.03l-4.33 1.84zm-4.06-5a2 2 0 0 1 .09-.5c.15-.46.55-.86 1.36-1.67l3.34-3.34c1.53 2.24 3.08 4.46 4.62 6.7.03.03.06.07.03.1a2.78 2.78 0 0 0 -.45.59h-.04l-8.95-1.88zm5.68-6.4 4.49-4.5c.42.2 1.96.84 3.33 1.42l2.29.97c.03.02.06.03.07.06v.06a2 2 0 0 0 .52 1.83c.03.03 0 .07-.02.1l-.02.03-4.56 7.06a.14.14 0 0 1 -.04.05h-.09a2.27 2.27 0 0 0 -.54-.07 3 3 0 0 0 -.52.06h-.06a.21.21 0 0 1 -.04-.06l-4.81-7.01zm5.4-5.4 5.81-5.81c.81-.8 1.21-1.21 1.68-1.36a2 2 0 0 1 1.2 0c.47.15.87.55 1.68 1.36l1.25 1.25-4.14 6.4a.16.16 0 0 1 -.04.05c-.03.02-.06.01-.09 0a2.1 2.1 0 0 0 -1.92.37c-.03.03-.07.01-.1 0l-5.34-2.27zm12.5-3.67 3.82 3.81-.92 5.7v.06l-.06.03a1.83 1.83 0 0 0 -.6.31h-.05l-5.82-2.48c-.04-.02-.09-.04-.09-.07a2.2 2.2 0 0 0 -.3-.92c-.04-.05-.07-.1-.04-.14zm-3.93 8.6 5.46 2.31c.03.02.06.03.07.06a.1.1 0 0 1 0 .06c-.01.08-.03.17-.03.26v.15c0 .04-.04.06-.07.07h-.01l-12.15 5.18c-.02 0-.04 0-.05-.02-.03-.03 0-.07.02-.1l.02-.03 4.48-6.94v-.01c.03-.04.06-.09.11-.09h.05c.1.02.19.04.28.04a2.02 2.02 0 0 0 1.72-.94c.03-.02.07-.01.1 0zm-6.24 9.19 12.28-5.24.03.02.18.15.03.02c.02.01.05.03.05.05v.03l-1.05 6.46v.03c-.02.05-.02.1-.07.1-.57.04-1.08.36-1.37.85l-.06.07h-.07l-9.8-2.02z" fill="url(#a)"/></g></svg>
