<svg width="99" height="40" viewBox="0 0 99 40" fill="none" xmlns="http://www.w3.org/2000/svg">
<g clip-path="url(#clip0_1_206)">
<g clip-path="url(#clip1_1_206)">
<path d="M22.5702 39.7906V29.7134L22.7803 29.5033H24.8795L25.0896 29.7134V39.7906L24.8795 40.0007H22.7803L22.5702 39.7906Z" fill="#05BDBA"/>
<path d="M22.5702 10.2866V0.21014L22.7803 0H24.8795L25.0896 0.21014V10.2866L24.8795 10.4967H22.7803L22.5702 10.2866Z" fill="#05BDBA"/>
<path d="M13.4445 32.5261H13.1477L11.6635 31.0412V30.7443L15.1293 27.2792L16.7009 27.2799L16.9118 27.4894V29.061L13.4445 32.5261Z" fill="#05BDBA"/>
<path d="M13.443 7.47465H13.1462L11.662 8.95959V9.25643L15.1278 12.7215L16.6995 12.7208L16.9103 12.5114V10.9397L13.443 7.47465Z" fill="#05BDBA"/>
<path d="M0.210139 18.7406H14.4857L14.6958 18.9508V21.05L14.4857 21.2601H0.210139L0 21.05V18.9508L0.210139 18.7406Z" fill="#05BDBA"/>
<path d="M84.756 18.7406H98.1925L98.4026 18.9508V21.05L98.1925 21.2601H83.9169L83.7068 21.05L84.5459 18.9508L84.756 18.7406Z" fill="#05BDBA"/>
<path d="M40.7553 20.8964L40.5452 21.1065H34.0331L33.8229 21.3167C33.8229 21.737 34.2432 22.9971 35.9236 22.9971C36.554 22.9971 37.1837 22.7869 37.3938 22.3666L37.604 22.1565H40.1249L40.335 22.3666C40.1249 23.6267 39.0749 25.518 35.9236 25.518C32.3527 25.518 30.6716 22.9971 30.6716 20.0566C30.6716 17.1161 32.3519 14.5951 35.7134 14.5951C39.0749 14.5951 40.7553 17.1161 40.7553 20.0566V20.8971V20.8964ZM37.604 18.7957C37.604 18.5856 37.3938 17.1154 35.7134 17.1154C34.033 17.1154 33.8229 18.5856 33.8229 18.7957L34.0331 19.0059H37.3938L37.604 18.7957Z" fill="#014847"/>
<path d="M46.637 22.1565C46.637 22.5768 46.8472 22.7869 47.2674 22.7869H49.158L49.3681 22.9971V25.0977L49.158 25.3079H47.2674C45.3769 25.3079 43.6965 24.4673 43.6965 22.1565V17.5349L43.4864 17.3248H42.0162L41.806 17.1146V15.014L42.0162 14.8038H43.4864L43.6965 14.5937V12.7032L43.9067 12.493H46.4276L46.6378 12.7032V14.5937L46.8479 14.8038H49.1587L49.3688 15.014V17.1146L49.1587 17.3248H46.8479L46.6378 17.5349V22.1565H46.637Z" fill="#014847"/>
<path d="M54.4092 25.3079H51.8883L51.6782 25.0977V10.8134L51.8883 10.6032H54.4092L54.6194 10.8134V25.0977L54.4092 25.3079Z" fill="#014847"/>
<path d="M60.0808 13.1242H57.5599L57.3497 12.914V10.8134L57.5599 10.6032H60.0808L60.2909 10.8134V12.914L60.0808 13.1242ZM60.0808 25.3079H57.5599L57.3497 25.0977V15.0147L57.5599 14.8046H60.0808L60.2909 15.0147V25.0977L60.0808 25.3079Z" fill="#014847"/>
<path d="M69.9537 10.8134V12.914L69.7435 13.1242H67.853C67.4327 13.1242 67.2226 13.3343 67.2226 13.7546V14.5952L67.4327 14.8053H69.5334L69.7435 15.0154V17.1161L69.5334 17.3262H67.4327L67.2226 17.5364V25.0985L67.0125 25.3086H64.4915L64.2814 25.0985V17.5364L64.0712 17.3262H62.601L62.3909 17.1161V15.0154L62.601 14.8053H64.0712L64.2814 14.5952V13.7546C64.2814 11.4438 65.9618 10.6032 67.8523 10.6032H69.7428L69.9529 10.8134H69.9537Z" fill="#014847"/>
<path d="M77.7259 25.518C76.8854 27.6187 76.0455 28.8788 73.1043 28.8788H72.0536L71.8435 28.6686V26.568L72.0536 26.3578H73.1043C74.1543 26.3578 74.3644 26.1477 74.5746 25.5173V25.3071L71.2138 17.1146V15.014L71.4239 14.8038H73.3144L73.5246 15.014L76.0455 22.1565H76.2557L78.7766 15.014L78.9868 14.8038H80.8773L81.0874 15.014V17.1146L77.7266 25.5173L77.7259 25.518Z" fill="#014847"/>
<path d="M26.0331 25.3079L25.8229 25.0977L25.8244 19.011C25.8244 17.9611 25.4115 17.1469 24.144 17.1205C23.4923 17.1036 22.7465 17.119 21.95 17.1528L21.831 17.2748L21.8325 25.0977L21.6223 25.3079H19.1021L18.892 25.0977V14.9023L19.1021 14.6921L24.7737 14.6407C27.615 14.6407 28.7649 16.5929 28.7649 18.7965V25.0977L28.5547 25.3079H26.0331Z" fill="#014847"/>
</g>
</g>
<defs>
<clipPath id="clip0_1_206">
<rect width="99" height="40" fill="white"/>
</clipPath>
<clipPath id="clip1_1_206">
<rect width="98.4019" height="40" fill="white"/>
</clipPath>
</defs>
</svg>
