<?xml version="1.0" encoding="UTF-8"?>
<svg width="147px" height="40px" viewBox="0 0 147 40" version="1.1" xmlns="http://www.w3.org/2000/svg" xmlns:xlink="http://www.w3.org/1999/xlink">
    <title>Netlify</title>
    <defs>
        <radialGradient cx="50%" cy="-50%" fx="50%" fy="-50%" r="100.10988%" gradientTransform="translate(0.500000,-0.500000),scale(1.000000,0.998901),rotate(90.000000),translate(-0.500000,0.500000)" id="radialGradient-1">
            <stop stop-color="#20C6B7" offset="0%"></stop>
            <stop stop-color="#4D9ABF" offset="100%"></stop>
        </radialGradient>
    </defs>
    <g id="Page-1" stroke="none" stroke-width="1" fill="none" fill-rule="evenodd">
        <g id="Group" fill-rule="nonzero">
            <path d="M53.37,12.9779996 L53.493,15.1759996 C54.896,13.4759996 56.738,12.6259996 59.018,12.6259996 C62.969,12.6259996 64.98,14.8939996 65.05,19.4299996 L65.05,31.9979996 L60.79,31.9979996 L60.79,19.6759996 C60.79,18.4689996 60.53,17.5759996 60.01,16.9949996 C59.49,16.4149996 58.639,16.1249996 57.458,16.1249996 C55.739,16.1249996 54.458,16.9049996 53.618,18.4629996 L53.618,31.9979996 L49.356,31.9979996 L49.356,12.9779996 L53.372,12.9779996 L53.37,12.9779996 Z M77.748,32.3499996 C75.048,32.3499996 72.858,31.4979996 71.181,29.7929996 C69.503,28.0879996 68.664,25.8169996 68.664,22.9809996 L68.664,22.4539996 C68.664,20.5559996 69.029,18.8589996 69.76,17.3649996 C70.49,15.8709996 71.517,14.7079996 72.838,13.8749996 C74.159,13.0439996 75.632,12.6279996 77.258,12.6279996 C79.841,12.6279996 81.838,13.4539996 83.246,15.1059996 C84.656,16.7589996 85.36,19.0959996 85.36,22.1199996 L85.36,23.8429996 L72.96,23.8429996 C73.09,25.4129996 73.612,26.6549996 74.53,27.5689996 C75.448,28.4829996 76.603,28.9399996 77.994,28.9399996 C79.946,28.9399996 81.536,28.1499996 82.764,26.5669996 L85.061,28.7649996 C84.301,29.9009996 83.287,30.7829996 82.019,31.4099996 C80.75,32.0369996 79.327,32.3499996 77.749,32.3499996 L77.748,32.3499996 Z M77.24,16.0559996 C76.07,16.0559996 75.127,16.4659996 74.408,17.2859996 C73.688,18.1059996 73.23,19.2489996 73.031,20.7139996 L81.151,20.7139996 L81.151,20.3969996 C81.057,18.9669996 80.677,17.8869996 80.011,17.1539996 C79.344,16.4219996 78.421,16.0559996 77.24,16.0559996 L77.24,16.0559996 Z M94.005,8.35599965 L94.005,12.9789996 L97.355,12.9789996 L97.355,16.1429996 L94.005,16.1429996 L94.005,26.7599996 C94.005,27.4859996 94.149,28.0099996 94.435,28.3329996 C94.721,28.6549996 95.233,28.8159996 95.97,28.8159996 C96.4717685,28.8145982 96.9717142,28.7555443 97.46,28.6399996 L97.46,31.9449996 C96.49,32.2149996 95.555,32.3489996 94.654,32.3489996 C91.381,32.3489996 89.744,30.5389996 89.744,26.9179996 L89.744,16.1419996 L86.62,16.1419996 L86.62,12.9779996 L89.742,12.9779996 L89.742,8.35499965 L94.003,8.35499965 L94.005,8.35599965 Z M105.142,31.9989997 L100.88,31.9989997 L100.88,4.99899965 L105.142,4.99899965 L105.142,31.9989997 Z M114.314,31.9989996 L110.052,31.9989996 L110.052,12.9789996 L114.314,12.9789996 L114.314,31.9989996 Z M109.789,8.03899965 C109.789,7.38399965 109.996,6.83899965 110.411,6.40499965 C110.827,5.97199965 111.42,5.75499965 112.191,5.75499965 C112.963,5.75499965 113.559,5.97199965 113.981,6.40499965 C114.401,6.83899965 114.611,7.38399965 114.611,8.03999965 C114.611,8.68399965 114.401,9.21999965 113.981,9.64799965 C113.559,10.0759997 112.963,10.2899997 112.191,10.2899997 C111.42,10.2899997 110.827,10.0759997 110.411,9.64799965 C109.996,9.22099965 109.789,8.68399965 109.789,8.03999965 L109.789,8.03899965 Z M120.452,31.9989996 L120.452,16.1419996 L117.558,16.1419996 L117.558,12.9779996 L120.452,12.9779996 L120.452,11.2379996 C120.452,9.12799965 121.036,7.49999965 122.205,6.35099965 C123.375,5.20299965 125.011,4.62899965 127.115,4.62899965 C127.864,4.62899965 128.659,4.73399965 129.501,4.94499965 L129.396,8.28499965 C128.858209,8.18518427 128.311934,8.13829367 127.765,8.14499965 C125.73,8.14499965 124.713,9.19299965 124.713,11.2909996 L124.713,12.9779996 L128.571,12.9779996 L128.571,16.1419996 L124.713,16.1419996 L124.713,31.9979996 L120.452,31.9979996 L120.452,31.9989996 Z M138.322,25.8819996 L142.18,12.9789996 L146.722,12.9789996 L139.182,34.8819996 C138.024,38.0809996 136.06,39.6809996 133.289,39.6809996 C132.669,39.6809996 131.985,39.5749996 131.237,39.3639996 L131.237,36.0589996 L132.044,36.1119996 C133.119,36.1119996 133.929,35.9159996 134.473,35.5229996 C135.016,35.1309996 135.446,34.4719996 135.762,33.5459996 L136.375,31.9109996 L129.711,12.9789996 L134.306,12.9789996 L138.322,25.8819996 Z" id="Shape" fill="#0E1E25"></path>
            <path d="M27.887,14.1349996 L27.873,14.1289996 C27.865,14.1259996 27.857,14.1229996 27.85,14.1159996 C27.8267454,14.0910216 27.8164014,14.0566647 27.822,14.0229996 L28.595,9.29699965 L32.22,12.9229996 L28.45,14.5269996 C28.4395229,14.5312246 28.4282937,14.5332662 28.417,14.5330423 L28.402,14.5330423 C28.397,14.5299996 28.392,14.5259996 28.382,14.5159996 C28.2416992,14.3597851 28.07392,14.230646 27.887,14.1349996 Z M33.145,13.8469996 L37.021,17.7229996 C37.826,18.5289996 38.229,18.9309996 38.376,19.3969996 C38.398,19.4659996 38.416,19.5349996 38.43,19.6059996 L29.167,15.6829996 C29.1620223,15.6809442 29.157022,15.6789441 29.152,15.6769996 C29.115,15.6619996 29.072,15.6449996 29.072,15.6069996 C29.072,15.5689996 29.116,15.5509996 29.153,15.5359996 L29.165,15.5309996 L33.145,13.8469996 Z M38.272,20.8499996 C38.072,21.2259996 37.682,21.6159996 37.022,22.2769996 L32.652,26.6459996 L27,25.4689996 L26.97,25.4629996 C26.92,25.4549996 26.867,25.4459996 26.867,25.4009996 C26.8236089,24.9296905 26.5863699,24.4975896 26.212,24.2079996 C26.189,24.1849996 26.195,24.1489996 26.202,24.1159996 C26.202,24.1109996 26.202,24.1059996 26.204,24.1019996 L27.267,17.5759996 L27.271,17.5539996 C27.277,17.5039996 27.286,17.4459996 27.331,17.4459996 C27.7911638,17.388755 28.2090834,17.1491717 28.491,16.7809996 C28.5,16.7709996 28.506,16.7599996 28.518,16.7539996 C28.55,16.7389996 28.588,16.7539996 28.621,16.7679996 L38.271,20.8499996 L38.272,20.8499996 Z M31.647,27.6509996 L24.461,34.8369996 L25.691,27.2769996 L25.693,27.2669996 C25.694,27.2569996 25.696,27.2469996 25.699,27.2379996 C25.709,27.2139996 25.735,27.2039996 25.76,27.1939996 L25.772,27.1889996 C26.0413157,27.0740943 26.2795111,26.8969044 26.467,26.6719996 C26.491,26.6439996 26.52,26.6169996 26.557,26.6119996 C26.5666031,26.610432 26.5763969,26.610432 26.586,26.6119996 L31.646,27.6519996 L31.647,27.6509996 Z M22.94,36.3579996 L22.13,37.1679996 L13.175,24.2259996 C13.1717617,24.2212658 13.1684277,24.2165982 13.165,24.2119996 C13.151,24.1929996 13.136,24.1739996 13.139,24.1519996 C13.139,24.1359996 13.15,24.1219996 13.161,24.1099996 L13.171,24.0969996 C13.198,24.0569996 13.221,24.0169996 13.246,23.9739996 L13.266,23.9389996 L13.269,23.9359996 C13.283,23.9119996 13.296,23.8889996 13.32,23.8759996 C13.341,23.8659996 13.37,23.8699996 13.393,23.8749996 L23.314,25.9209996 C23.3417403,25.9253135 23.3679087,25.9366761 23.39,25.9539996 C23.403,25.9669996 23.406,25.9809996 23.409,25.9969996 C23.5492807,26.5277599 23.9295833,26.9624443 24.437,27.1719996 C24.465,27.1859996 24.453,27.2169996 24.44,27.2499996 C24.433514,27.2644627 24.428489,27.2795376 24.425,27.2949996 C24.3,28.0549996 23.228,34.5929996 22.94,36.3579996 Z M21.248,38.0489996 C20.651,38.6399996 20.299,38.9529996 19.901,39.0789996 C19.5085761,39.2030898 19.0874239,39.2030898 18.695,39.0789996 C18.229,38.9309996 17.826,38.5289996 17.021,37.7229996 L8.028,28.7299996 L10.377,25.0869996 C10.388,25.0689996 10.399,25.0529996 10.417,25.0399996 C10.442,25.0219996 10.478,25.0299996 10.508,25.0399996 C11.0471605,25.202661 11.6260435,25.1733281 12.146,24.9569996 C12.173,24.9470612 12.2,24.9399996 12.221,24.9589996 C12.2315013,24.9685851 12.2408934,24.9793189 12.249,24.9909996 L21.248,38.0499996 L21.248,38.0489996 Z M7.161,27.8629996 L5.098,25.7999996 L9.172,24.0619996 C9.18241347,24.0574588 9.19363982,24.0550775 9.205,24.0549996 C9.239,24.0549996 9.259,24.0889996 9.277,24.1199996 C9.317942,24.182988 9.36130782,24.2443674 9.407,24.3039996 L9.42,24.3199996 C9.432,24.3369996 9.424,24.3539996 9.412,24.3699996 L7.162,27.8629996 L7.161,27.8629996 Z M4.185,24.8869996 L1.575,22.2769996 C1.131,21.8329996 0.809,21.5109996 0.585,21.2339996 L8.521,22.8799996 C8.53096901,22.8818472 8.54097064,22.8835142 8.551,22.8849996 C8.6,22.8929996 8.654,22.9019996 8.654,22.9479996 C8.654,22.9979996 8.595,23.0209996 8.545,23.0399996 L8.522,23.0499996 L4.185,24.8869996 Z M0.129,19.8919996 C0.138044156,19.723869 0.168283357,19.5575534 0.219,19.3969996 C0.367,18.9309996 0.769,18.5289996 1.575,17.7229996 L4.915,14.3829996 C6.45283313,16.6148794 7.99483583,18.8438833 9.541,21.0699996 C9.568,21.1059996 9.598,21.1459996 9.567,21.1759996 C9.421,21.3369996 9.275,21.5129996 9.172,21.7039996 C9.16082604,21.7285506 9.14362646,21.7498781 9.122,21.7659996 C9.109,21.7739996 9.095,21.7709996 9.08,21.7679996 L9.078,21.7679996 L0.129,19.8909996 L0.129,19.8919996 Z M5.809,13.4889996 L10.298,8.99799965 C10.721,9.18299965 12.258,9.83199965 13.631,10.4119997 C14.671,10.8519996 15.619,11.2519996 15.917,11.3819996 C15.947,11.3939996 15.974,11.4059996 15.987,11.4359996 C15.995,11.4539996 15.991,11.4769996 15.987,11.4959996 C15.8425908,12.1545198 16.0391423,12.8415104 16.51,13.3239996 C16.54,13.3539996 16.51,13.3969996 16.484,13.4339996 L16.47,13.4549996 L11.91,20.5179996 C11.898,20.5379996 11.887,20.5549996 11.867,20.5679996 C11.843,20.5829996 11.809,20.5759996 11.781,20.5689996 C11.6036449,20.5225335 11.4213213,20.4976865 11.238,20.4949996 C11.074,20.4949996 10.896,20.5249996 10.716,20.5579996 L10.715,20.5579996 C10.695,20.5609996 10.677,20.5649996 10.661,20.5529996 C10.6433284,20.5385578 10.6281291,20.5213319 10.616,20.5019996 L5.808,13.4889996 L5.809,13.4889996 Z M11.207,8.09099965 L17.021,2.27699965 C17.826,1.47199965 18.229,1.06899965 18.695,0.921999647 C19.0874239,0.797909451 19.5085761,0.797909451 19.901,0.921999647 C20.367,1.06899965 20.77,1.47199965 21.575,2.27699965 L22.835,3.53699965 L18.7,9.94099965 C18.6897707,9.95964272 18.6758146,9.97598152 18.659,9.98899965 C18.634,10.0059997 18.599,9.99899965 18.569,9.98899965 C17.9071452,9.78814575 17.1888165,9.9265737 16.649,10.3589997 C16.622,10.3869997 16.582,10.3709997 16.548,10.3559997 C16.008,10.1209997 11.808,8.34599965 11.207,8.09099965 L11.207,8.09099965 Z M23.713,4.41499965 L27.531,8.23299965 L26.611,13.9309996 L26.611,13.9459996 C26.6101786,13.9589857 26.607484,13.9717847 26.603,13.9839996 C26.593,14.0039996 26.573,14.0079996 26.553,14.0139996 C26.3562991,14.0735812 26.1710404,14.1658725 26.005,14.2869996 C25.9978617,14.2920868 25.9911707,14.2977741 25.985,14.3039996 C25.974,14.3159996 25.963,14.3269996 25.945,14.3290969 C25.9303499,14.3294523 25.9157501,14.3270756 25.902,14.3219996 L20.084,11.8499996 L20.073,11.8449996 C20.036,11.8299996 19.992,11.8119996 19.992,11.7739996 C19.9578032,11.4497839 19.8519124,11.1372352 19.682,10.8589996 C19.654,10.8129997 19.623,10.7649997 19.647,10.7179997 L23.713,4.41499965 Z M19.781,13.0209996 L25.235,15.3309996 C25.265,15.3449996 25.298,15.3579996 25.311,15.3889996 C25.3162043,15.4076433 25.3162043,15.427356 25.311,15.4459996 C25.295,15.5259996 25.281,15.6169996 25.281,15.7089996 L25.281,15.8619996 C25.281,15.8999996 25.242,15.9159996 25.206,15.9309996 L25.195,15.9349996 C24.331,16.3039996 13.065,21.1079996 13.048,21.1079996 C13.031,21.1079996 13.013,21.1079996 12.996,21.0909996 C12.966,21.0609996 12.996,21.0189996 13.023,20.9809996 C13.0277734,20.9744084 13.0324407,20.9677408 13.037,20.9609996 L17.519,14.0209996 L17.527,14.0089996 C17.553,13.9669996 17.583,13.9199996 17.631,13.9199996 L17.676,13.9269996 C17.778,13.9409996 17.868,13.9539996 17.959,13.9539996 C18.639,13.9539996 19.269,13.6229996 19.649,13.0569996 C19.6580537,13.0418853 19.6695416,13.0283701 19.683,13.0169996 C19.71,12.9969996 19.75,13.0069996 19.781,13.0209996 L19.781,13.0209996 Z M13.535,22.2059996 L25.815,16.9689996 C25.815,16.9689996 25.833,16.9689996 25.85,16.9859996 C25.917,17.0529996 25.974,17.0979996 26.029,17.1399996 L26.056,17.1569996 C26.081,17.1709996 26.106,17.1869996 26.108,17.2129996 C26.108,17.2229996 26.108,17.2289996 26.106,17.2379996 L25.054,23.6999996 L25.05,23.7259996 C25.043,23.7759996 25.036,23.8329996 24.989,23.8329996 C24.419594,23.8714331 23.9058315,24.1883717 23.616,24.6799996 L23.611,24.6879996 C23.597,24.7109996 23.584,24.7329996 23.561,24.7449996 C23.54,24.7549996 23.513,24.7509996 23.491,24.7459996 L13.698,22.7259996 C13.688,22.7239996 13.546,22.2069996 13.535,22.2059996 L13.535,22.2059996 Z" id="Shape" fill="url(#radialGradient-1)"></path>
        </g>
    </g>
</svg>